<svg width="256" height="256" viewBox="0 0 256 256" fill="none" xmlns="http://www.w3.org/2000/svg">
<path d="M0 128C0 198.692 57.3076 256 128 256C198.692 256 256 198.692 256 128C256 57.3076 198.692 0 128 0C57.3076 0 0 57.3076 0 128Z" fill="#ED3030"/>
<path fill-rule="evenodd" clip-rule="evenodd" d="M246.974 175.306L148.025 88.4364L149.162 128V143.541L144.616 154.764L133.25 161.745H125.294L119.611 160.582L109.382 150.109L153.734 253.412C196.333 244.718 231.232 214.863 246.974 175.306Z" fill="url(#paint0_linear_17_39)"/>
<path fill-rule="evenodd" clip-rule="evenodd" d="M126.836 37.2364C109.485 37.2364 95.4182 51.1624 95.4182 68.3407V68.7394H109.315C110.761 68.7394 111.933 69.9002 111.933 71.3316C111.933 72.7631 110.761 73.9235 109.315 73.9235H95.4182V78.3101H109.315C110.761 78.3101 111.933 79.4705 111.933 80.902C111.933 82.3338 110.761 83.4942 109.315 83.4942H95.4182V89.4759H109.315C110.761 89.4759 111.933 90.6363 111.933 92.0677C111.933 93.4992 110.761 94.66 109.315 94.66H95.4182V148.096C95.4182 165.274 109.485 179.2 126.836 179.2C144.188 179.2 158.255 165.274 158.255 148.096V68.3407C158.255 51.1624 144.188 37.2364 126.836 37.2364Z" fill="white"/>
<path d="M172.218 153.6C172.218 159.101 171.044 164.549 168.764 169.631C166.483 174.713 163.14 179.331 158.926 183.221C154.712 187.111 149.709 190.197 144.203 192.302C138.697 194.407 132.796 195.491 126.836 195.491C120.877 195.491 114.975 194.407 109.469 192.302C103.964 190.197 98.9607 187.111 94.7465 183.221C90.5323 179.331 87.1898 174.713 84.9092 169.631C82.6285 164.549 81.4545 159.101 81.4545 153.6H88.4678C88.4678 158.251 89.4602 162.856 91.3883 167.153C93.3167 171.45 96.1429 175.355 99.7057 178.644C103.269 181.933 107.498 184.541 112.153 186.321C116.808 188.101 121.798 189.017 126.836 189.017C131.875 189.017 136.864 188.101 141.519 186.321C146.175 184.541 150.404 181.933 153.967 178.644C157.53 175.355 160.356 171.45 162.284 167.153C164.212 162.856 165.205 158.251 165.205 153.6H172.218Z" fill="white"/>
<path d="M81.4545 136.145C81.4545 134.217 83.0174 132.655 84.9455 132.655C86.8735 132.655 88.4364 134.217 88.4364 136.145V153.6H81.4545V136.145Z" fill="white"/>
<path d="M165.236 136.145C165.236 134.217 166.799 132.655 168.727 132.655C170.655 132.655 172.218 134.217 172.218 136.145V153.6H165.236V136.145Z" fill="white"/>
<path d="M130.327 190.836H123.345V218.764H130.327V190.836Z" fill="white"/>
<path d="M109.382 215.273C109.382 213.345 110.945 211.782 112.873 211.782H140.8C142.728 211.782 144.291 213.345 144.291 215.273C144.291 217.201 142.728 218.764 140.8 218.764H112.873C110.945 218.764 109.382 217.201 109.382 215.273Z" fill="white"/>
<defs>
<linearGradient id="paint0_linear_17_39" x1="97.4988" y1="56.4406" x2="385.152" y2="270.376" gradientUnits="userSpaceOnUse">
<stop offset="0.14658" stop-color="#9C2121"/>
<stop offset="1" stop-color="#EE2F2F"/>
</linearGradient>
</defs>
</svg>
