<svg width="110" height="110" viewBox="0 0 110 110" fill="none" xmlns="http://www.w3.org/2000/svg">
<path d="M0 55C0 85.3757 24.6243 110 55 110C85.3757 110 110 85.3757 110 55C110 24.6243 85.3757 0 55 0C24.6243 0 0 24.6243 0 55Z" fill="#ED3030"/>
<path fill-rule="evenodd" clip-rule="evenodd" d="M106.122 75.3269L63.6046 38L64.093 55V61.6777L62.1395 66.5L57.2558 69.5H53.8372L51.3953 69L47 64.5L66.0575 108.888C84.3618 105.152 99.3575 92.3241 106.122 75.3269Z" fill="url(#paint0_linear_2_114)"/>
<path fill-rule="evenodd" clip-rule="evenodd" d="M54.9393 29C50.0023 29 46 33.0023 46 37.9393V38.0539H49.9539C50.3654 38.0539 50.6989 38.3875 50.6989 38.7989C50.6989 39.2103 50.3654 39.5438 49.9539 39.5438H46V40.8045H49.9539C50.3654 40.8045 50.6989 41.138 50.6989 41.5494C50.6989 41.9609 50.3654 42.2944 49.9539 42.2944H46V44.0135H49.9539C50.3654 44.0135 50.6989 44.347 50.6989 44.7584C50.6989 45.1698 50.3654 45.5034 49.9539 45.5034H46V60.8607C46 65.7977 50.0023 69.8 54.9393 69.8C59.8764 69.8 63.8787 65.7977 63.8787 60.8607V37.9393C63.8787 33.0023 59.8764 29 54.9393 29Z" fill="white"/>
<path d="M68 62C68 63.5759 67.6637 65.1363 67.0104 66.5922C66.3571 68.0481 65.3995 69.371 64.1924 70.4853C62.9852 71.5996 61.5521 72.4835 59.9749 73.0866C58.3977 73.6896 56.7072 74 55 74C53.2928 74 51.6023 73.6896 50.0251 73.0866C48.4479 72.4835 47.0148 71.5996 45.8076 70.4853C44.6004 69.371 43.6429 68.0481 42.9896 66.5922C42.3363 65.1363 42 63.5759 42 62H44.009C44.009 63.3323 44.2933 64.6516 44.8456 65.8825C45.398 67.1134 46.2076 68.2319 47.2282 69.174C48.2488 70.1161 49.4604 70.8634 50.7939 71.3733C52.1274 71.8831 53.5566 72.1455 55 72.1455C56.4434 72.1455 57.8726 71.8831 59.2061 71.3733C60.5396 70.8634 61.7512 70.1161 62.7718 69.174C63.7924 68.2319 64.602 67.1134 65.1544 65.8825C65.7067 64.6516 65.991 63.3323 65.991 62H68Z" fill="white"/>
<path d="M42 57C42 56.4477 42.4477 56 43 56C43.5523 56 44 56.4477 44 57V62H42V57Z" fill="white"/>
<path d="M66 57C66 56.4477 66.4477 56 67 56C67.5523 56 68 56.4477 68 57V62H66V57Z" fill="white"/>
<path d="M56 73H54V81H56V73Z" fill="white"/>
<path d="M50 80C50 79.4477 50.4477 79 51 79H59C59.5523 79 60 79.4477 60 80C60 80.5523 59.5523 81 59 81H51C50.4477 81 50 80.5523 50 80Z" fill="white"/>
<defs>
<linearGradient id="paint0_linear_2_114" x1="41.894" y1="24.2518" x2="165.495" y2="116.177" gradientUnits="userSpaceOnUse">
<stop stop-color="#EE2F2F"/>
<stop offset="0.5" stop-color="#9C2121"/>
</linearGradient>
</defs>
</svg>
